<svg xmlns="http://www.w3.org/2000/svg" viewBox="0 0 360 560" role="img">
  <defs>
    <linearGradient id="rapi-hood" x1="0" y1="0" x2="0" y2="1">
      <stop offset="0" stop-color="#E2574C"/>
      <stop offset="1" stop-color="#B93A32"/>
    </linearGradient>
  </defs>
  <ellipse cx="180" cy="528" rx="88" ry="12" fill="#2b1a24" opacity="0.08"/>
  <g transform="rotate(14 180 250)">
    <rect x="104" y="244" width="152" height="10" rx="5" fill="#262B36"/>
    <rect x="96" y="242" width="26" height="14" rx="4" fill="#1D222C"/>
    <rect x="226" y="248" width="34" height="22" rx="6" fill="#262B36"/>
    <rect x="150" y="252" width="16" height="20" rx="4" fill="#313947"/>
    <circle cx="238" cy="242" r="9" fill="none" stroke="#4A5568" stroke-width="4"/>
  </g>
  <path d="M180 92 C122 92 104 144 108 204 C111 258 100 292 96 318 L264 318 C260 292 249 258 252 204 C256 144 238 92 180 92 Z" fill="#EDEFF4"/>
  <path d="M126 250 C130 226 152 218 180 218 C208 218 230 226 234 250 C238 274 232 292 224 300 C200 288 160 288 136 300 C128 292 122 274 126 250 Z" fill="url(#rapi-hood)"/>
  <rect x="150" y="390" width="24" height="112" rx="12" fill="#23272F"/>
  <rect x="186" y="390" width="24" height="112" rx="12" fill="#23272F"/>
  <path d="M144 498 h32 a10 10 0 0 1 10 10 v8 a8 8 0 0 1 -8 8 h-40 a8 8 0 0 1 -8 -8 v-4 a14 14 0 0 1 14 -14 Z" fill="#41474F"/>
  <path d="M184 498 h32 a14 14 0 0 1 14 14 v4 a8 8 0 0 1 -8 8 h-40 a8 8 0 0 1 -8 -8 v-8 a10 10 0 0 1 10 -10 Z" fill="#41474F"/>
  <path d="M140 250 Q180 238 220 250 L230 340 Q180 356 130 340 Z" fill="#23272F"/>
  <path d="M176 244 L184 244 L182 344 L178 344 Z" fill="#E2574C" opacity="0.9"/>
  <rect x="134" y="330" width="92" height="12" rx="6" fill="#41474F"/>
  <rect x="172" y="330" width="16" height="12" rx="3" fill="#E2574C"/>
  <rect x="118" y="254" width="20" height="90" rx="10" fill="#23272F"/>
  <circle cx="128" cy="350" r="9" fill="#F8DCC6"/>
  <g transform="rotate(-24 226 258)">
    <rect x="220" y="252" width="20" height="84" rx="10" fill="#23272F"/>
    <circle cx="230" cy="340" r="9" fill="#F8DCC6"/>
  </g>
  <rect x="170" y="200" width="20" height="24" rx="9" fill="#F8DCC6"/>
  <path d="M158 214 Q180 226 202 214 L202 226 Q180 236 158 226 Z" fill="#B93A32"/>
  <circle cx="180" cy="154" r="50" fill="#F8DCC6"/>
  <path d="M124 158 C124 104 148 82 180 82 C212 82 236 104 236 158 C236 172 230 180 224 176 C228 132 208 108 180 108 C152 108 132 132 136 176 C130 180 124 172 124 158 Z" fill="url(#rapi-hood)"/>
  <path d="M132 138 C136 108 154 96 180 96 C206 96 224 108 228 138 C228 148 220 152 214 142 C204 128 192 122 180 122 C168 122 156 128 146 142 C140 152 132 148 132 138 Z" fill="#EDEFF4"/>
  <path d="M134 140 C128 164 130 188 138 202 C120 196 114 168 120 148 Z" fill="#EDEFF4"/>
  <path d="M226 140 C232 164 230 188 222 202 C240 196 246 168 240 148 Z" fill="#EDEFF4"/>
  <path d="M148 150 q10 -6 20 0" stroke="#9AA2AE" stroke-width="3" fill="none" stroke-linecap="round"/>
  <path d="M192 150 q10 -6 20 0" stroke="#9AA2AE" stroke-width="3" fill="none" stroke-linecap="round"/>
  <ellipse cx="160" cy="164" rx="9" ry="11" fill="#C98A4B"/>
  <ellipse cx="200" cy="164" rx="9" ry="11" fill="#C98A4B"/>
  <circle cx="163" cy="160" r="3" fill="#FFFFFF"/>
  <circle cx="203" cy="160" r="3" fill="#FFFFFF"/>
  <ellipse cx="146" cy="176" rx="7" ry="4" fill="#F6B4A0" opacity="0.6"/>
  <ellipse cx="214" cy="176" rx="7" ry="4" fill="#F6B4A0" opacity="0.6"/>
  <path d="M173 182 q7 6 14 0" stroke="#B47B48" stroke-width="3" fill="none" stroke-linecap="round"/>
</svg>
